<svg xmlns:xlink="http://www.w3.org/1999/xlink" xmlns="http://www.w3.org/2000/svg" class="icon" width="1108.28"  height="201.66" ><defs><symbol xmlns="http://www.w3.org/2000/svg" viewBox="0 0 1108.28 201.66" id="svg_rating"><path d="M106.14 162.07l65.59 39.59-17.41-74.61 58-50.21L136 70.37 106.14 0 76.31 70.37 0 76.84l58 50.21-17.46 74.61zm222 0l65.59 39.59-17.41-74.61 58-50.21L358 70.37 328.14 0l-29.83 70.37L222 76.84l58 50.21-17.41 74.61zm230 0l65.59 39.59-17.41-74.61 58-50.21L588 70.37 558.14 0l-29.83 70.37L452 76.84l58 50.21-17.41 74.61zm222 0l65.59 39.59-17.41-74.61 58-50.21L810 70.37 780.14 0l-29.83 70.37L674 76.84l58 50.21-17.41 74.61zm222 0l65.59 39.59-17.41-74.61 58-50.21-76.32-6.47L1002.14 0l-29.83 70.37L896 76.84l58 50.21-17.41 74.61z"></path></symbol></defs><use xlink:href="#svg_rating" fill="#FB8F00"></use></svg>