<svg xmlns="http://www.w3.org/2000/svg" viewBox="0 0 391.44 157.48"><symbol xmlns="http://www.w3.org/2000/svg" viewBox="0 0 391.44 157.48" id="svg_aldi-logo"><rect width="391.44" height="157.48" rx="12.96" ry="12.96" fill="#ffc233"/><rect x="12.61" y="14.09" width="366.23" height="129.3" rx="4.87" ry="4.87" fill="#f47920"/><rect x="19.36" y="20.88" width="352.72" height="115.71" rx="3.08" ry="3.08" fill="#ef4130"/><rect x="25.09" y="24.35" width="341.27" height="108.77" rx="3.33" ry="3.33" fill="#004689"/><path d="M84.34 115.29H79.7l20.56-73.1h4.64l-20.56 73.1zm-7.74 0H72l20.55-73.1h4.65l-20.6 73.1zm-7.74 0h-4.64l20.55-73.1h4.65l-20.56 73.1zM57.41 40H132v77.4H57.41V40zm-3.58-2.15h81.71v81.7H53.83V37.89zm40.22 53.79l1.21-4.3h32.39v4.3zm2-7.17l1.22-4.3h30.36v4.3zM92 98.81l1.21-4.3h34.41v4.3z" fill-rule="evenodd" fill="#00b8de"/><path d="M192.83 88.57h-9l4.51-23.07 4.51 23.07zm24.86 18.56l-16.43-56.78H177l-16.69 56.78h19.58l1.53-6.55h13.71l1.62 6.55zm40.17 0L256 91.72h-14.06V50.35h-19.58v56.78zm53.2-28.43c0-27.59-9.28-28.35-29.12-28.35h-18.21v56.78h18.21c19.84 0 29.12-.76 29.12-28.43zm-19.67 0c0 10.89-.25 16.09-6.55 16.09h-1.62v-32.1h1.62c6.3 0 6.55 5.28 6.55 16zm46.22 28.43V50.35H318v56.78z" fill="#fff" fill-rule="evenodd"/></symbol><use xlink:href="#svg_aldi-logo" xmlns:xlink="http://www.w3.org/1999/xlink"/></svg>