<svg xmlns:xlink="http://www.w3.org/1999/xlink" xmlns="http://www.w3.org/2000/svg" title="Asda" class="store-logo -asda" width="44"  height="13" ><defs><symbol xmlns="http://www.w3.org/2000/svg" viewBox="0 0 40.85 12" id="svg_asda-logo"><path d="M33.58 7.53l1.22-4.05L36 7.53zm-9 1.33h-.76V3.25h.75C25.72 3.25 27 3.72 27 6c0 2.06-1.11 2.82-2.38 2.82M4.69 7.53l1.25-4.1 1.23 4.1zM37 .34h-4.18l-2.4 7a7 7 0 0 0 .13-1.24c0-2.96-1.67-5.76-5.55-5.76h-4.5v6.91c-.38-2-2.18-2.49-4.41-3.17-.83-.25-1.29-.66-1.12-1s.65-.44 1.27-.35a6.8 6.8 0 0 1 2.43.85l1-2.46A8.2 8.2 0 0 0 15.77 0C13 0 11.15 1.37 11.15 3.4c0 1.8 1.12 2.85 3.16 3.44 2.2.64 2.76.9 2.7 1.53s-1.43 1.21-4.77-.84l-1 2.05L8.19.34H4L0 11.82h3.32l.52-1.62H8l.5 1.62H12l-.39-1.12A8.67 8.67 0 0 0 16 12c2.68 0 4.13-1.46 4.47-2.86v2.68H25a5 5 0 0 0 4.81-2.64l-.91 2.64h3.31l.54-1.62h4.18l.48 1.62h3.49z" fill="#82BA27"></path></symbol></defs><title>Asda</title><use xlink:href="#svg_asda-logo"></use></svg>