<svg xmlns="http://www.w3.org/2000/svg" viewBox="0 0 272.75 141.68"><symbol xmlns="http://www.w3.org/2000/svg" viewBox="0 0 272.75 141.68" id="svg_bm-logo"><path d="M64.06 133.81H0V9.88h66.64c-3.45 0-17.47 3.07-25 7.14a13.65 13.65 0 00-3.87 2.84 3.4 3.4 0 00-.93 2.14c0 1.41 1.68 2.22 3.5 3.21 2.42 1.31 5.08 2.94 4.23 6.73-1.47 6.62-12.86 57-12.86 78a32.33 32.33 0 00.26 4.18c2.22 17.14 18.42 19.69 32.09 19.69z" fill="#f7911e"/><path d="M92 86.37c0 22.44-14.69 36-21.31 36a15.23 15.23 0 01-3.38-.36c-4.82-1.11-8-4.77-8-11.41-.03-2.8 1.61-14.9 3.69-29.6a19.17 19.17 0 011.64-4.72.41.41 0 000-.09A23 23 0 0171.05 69l.13-.09c3.49-2.44 7.14-3.51 9.06-3.51a11.53 11.53 0 012.26.21c4.83.96 9.5 5.5 9.5 20.76z" fill="#f7911e"/><path d="M66.64 9.88c3.68 0 5.89.74 5.89 5.15 0 2-2.66 19.74-5.58 39.47v.3c-.19 1.25-.37 2.5-.56 3.76-.1.7-.21 1.41-.31 2.11a67.78 67.78 0 017.87-4.21A44.05 44.05 0 0181 53.93a28.79 28.79 0 017.33-1c8.06 0 16.71 2 22.6 8.39a11.45 11.45 0 00-8.61 8.8 15.12 15.12 0 00-.36 3.41c0 2.07 1.22 4.79 3.12 7.79l.49.76-.42.29c-2.6 1.87-6.57 5.38-7.44 9.93q-.08.89-.18 1.74v.08a12.29 12.29 0 005 9.66 15.32 15.32 0 009.21 3.39 8.4 8.4 0 001-.06C105 122.3 89 133.81 64.06 133.81h208.69V9.88zm39.15 82.93a13.31 13.31 0 012.38-7.15 143.39 143.39 0 0012.2 13.66 10.45 10.45 0 01-4.17 1.74 6.86 6.86 0 01-1 .14 9.69 9.69 0 01-1.09.06c-4.64 0-8.32-3.13-8.32-8.45zm84.48 22l-1 .11c-5.34.54-15.84 2-17.87 2.2-1.24.11-2.26.15-2.87-1.06a9.47 9.47 0 01-.61-4.09c0-5.33 1.46-41.19 1.46-46.52a16.32 16.32 0 00-2-8 7.29 7.29 0 00-6.38-3.99c-6.07 0-15.27 6.8-15.44 14.52s-1.66 48-1.66 49.46.35 3.31-3.3 3.87c-1 .15-2.64.34-4.64.55-2.27.24-4.94.5-7.41.74l-7.62.74h-.27c-1.46.14-3.21.08-3.4-3.46a10 10 0 010-1.36c.06-1.51-.22-6.37-.65-12.48a31.17 31.17 0 006.88-3.73c1.09 1.06 2 1.9 2.57 2.45l.77.7h6c1.39.07 2 .12.77-1.94l-.17-.28a55.86 55.86 0 00-5-5.37c2.43-2.83 4.11-6.16 4.11-9.71 0-5.33-.91-7.91-3.67-7.91s-5 2.39-5 4 2.75 3.3 2.37 5.52a16.07 16.07 0 01-1.53 4.32c-6.91-7.12-15.36-16.56-15.36-22 0-5.88 2.39-6.25 4.6-6.25s3.1 2.94 5.31 2.94c1.87 0 4.24-1.1 4.24-2.94s-3.32-5.15-8.81-5.15a13.79 13.79 0 00-1.9.13c0-2.64.38-5.16 1.72-6.2l.23-.18c.81-.61 2.17-1.52 3.84-2.57 6-3.78 16-9.39 19.07-9.39a3 3 0 012 .89 8.76 8.76 0 011.66 2.23 30.29 30.29 0 012.59 7.19 47.87 47.87 0 0114.11-11 42.51 42.51 0 016.23-2.61 36.86 36.86 0 0111.3-1.81 16.77 16.77 0 011.9.1 16.2 16.2 0 014.06.95c7.44 2.75 10.57 10 10.57 10a39.64 39.64 0 0116.75-14.25 35 35 0 015.06-1.8 35.78 35.78 0 019.45-1.24 28 28 0 019 1.33 17.74 17.74 0 013.78 1.73 15.94 15.94 0 016.82 8.41 8.68 8.68 0 011.47.21c-.4.16-.8.33-1.2.53a24.2 24.2 0 011.06 7.28c0 9.93-1.11 48.17.36 50s4.42 2.58 4.42 4.42c0 1.29-11.73 3.12-19.9 4.22-3.49.47-6.34.81-7.33.92h-.07c-3.24.33-4-1.5-4-5.89 0-7 1.3-39.72 1.5-45.6s-2.57-12.14-8.66-12.14c-4 0-9.66 3.45-13 8.37a15.17 15.17 0 00-2.81 8.19c-.18 8.82-.93 45.05-1.11 47.62-.14 2.51.82 3.47-3.39 4.04z" fill="#f7911e"/><path d="M245.66 28.41l1.45-.64.26-.11 5.18-2.3 20.2-8.95V9.88h-25.28l-20.79 12.28c-1.11-.08-2.23-.11-3.39-.11a45.13 45.13 0 00-28.94 10.43l-1 .85c-.7.61-1.37 1.21-2 1.81q-.33-.48-.69-.93l-.2-.27 1.46-1.13 29.66-22.93h-18.19l-20 19.4a27.33 27.33 0 00-7.93-1h-2.28l14.62-18.4h-11.54L163.32 30a50 50 0 00-8 3L166 9.88h-8.9l-9 27.2c-.41.28-.8.54-1.18.83a14.27 14.27 0 00-3.33-2.81l4.53-25.22h-8.42l-1.9 23.57h-.2a16.07 16.07 0 00-4.34.76l-1.49-24.33H124l4.88 26c-1.22.52-2.49 1.12-3.71 1.74l-9.41-27.7h-9.33l13.38 30.59c-1.54.91-3 1.8-4.36 2.65L95.1 9.88h-12l28.3 35.85c-1.58 1.05-2.53 1.74-2.57 1.76-.21.16-.4.33-.59.49-1-.49-2-.92-3.08-1.33L80.83 22.94c.64-4.74.88-6.88.88-7.91a17.46 17.46 0 00-.63-4.62c0-.17-.1-.35-.16-.53h.23c.3-2.12.46-3.52.46-4 0-5-2.69-5.86-7.16-5.86a43.81 43.81 0 00-6.66.87H67c-4.46 0-22.8 4-31.35 9A21.69 21.69 0 0031 13.72l-.21.23-7-4.07H0v7L33.69 32c.45.29.91.55 1.3.76-.86 3.88-1.8 8.25-2.76 12.89L0 35.55v17.69l29.57 5.38c-.81 4.23-1.62 8.53-2.38 12.79L0 69.7v16.61l25-1.38c-.73 4.85-1.34 9.48-1.76 13.71l-23.2 4v18.14l22.71-7a31.74 31.74 0 004 13.46L12 133.81h20.57c7.87 6.59 20.29 7.87 31.33 7.87a93.08 93.08 0 0014.78-1.13c10.33-.77 16.14-3.16 23.66-6.74l1.42-2.26.25-.39a51.66 51.66 0 005.62-4.66c.11.21.22.41.35.62a12.37 12.37 0 001.55 2 8.07 8.07 0 00.87.78l.39.31-1.63 3.6h7l.43-1.31a9.27 9.27 0 001.3.07 16.44 16.44 0 002-.12c.43-.06 1.7-.18 3.44-.33l1.23-.13-.32 1.82h4.9l.15-2.27c2.85-.28 5.42-.54 7.48-.76l.19 3h4.88l-.76-3.65a14.18 14.18 0 004.34-1.68c.12-.07.24-.14.35-.22a10.76 10.76 0 002.46-2.13l.66 1.85.06.16 2 5.67h7l-3-6.33v-.06l-3.95-8.12c0-.53.06-1.07.06-1.64v-.12c0-.56.12-4.13.26-8.76l6.8 10.74a11.79 11.79 0 00.89 1.74 9.4 9.4 0 001.21 1.58l2.38 3.77 4.57 7.23h10.33l-5.91-7.73 5.22-.67c1.43-.2 3-.4 4.59-.6l8.86 9H207l-13.22-10.45a17.59 17.59 0 002.6-.89 11.39 11.39 0 002.32-1.35 9.52 9.52 0 002.85-3.28l5.52 3.34 20.79 12.6h31.71L226.29 119c3-.39 7.48-1 11.82-1.66 5.12-.81 9.74-1.54 13.27-3l21.37 6.6v-18.4l-14.37-2.61-1.69-.31a14.16 14.16 0 00-3.5-3.82c-.12-2.47-.17-6.28-.17-10.54l5.85.37 13.88.87V68.43l-13.25.79-6.33.38c.05-2.71.08-5.22.09-7.26.05-2.32.08-4.47.13-6.35l6.66-1.19 12.7-2.27v-18L252 40.86a25.84 25.84 0 00-7.67-11.81l1.26-.56zM95.15 44.16a55.47 55.47 0 00-6.82-.43 35.94 35.94 0 00-5.76.5l-4.46-2.6c.55-3.6 1-6.72 1.4-9.43zm63.74 62.67l-5.27-6.83v-.35l.18-4.82 5.29 5.37c-.09 2.47-.09 4.74-.2 6.63zm.35-10.83l-5.33-4.22c0-.95.06-1.89.11-2.82l5.38 3.26c-.05 1.31-.12 2.59-.16 3.78zm.28-7.69v.88l-5.42-2.39c0-.85.06-1.68.1-2.51l5.4 1.71c0 .8-.06 1.57-.08 2.35zm.23-6.36l-5.46-1c0-.67 0-1.34.07-2l5.49.34c-.03.94-.09 1.82-.1 2.71zm.22-6.84l-5.49.34c0-.65 0-1.29.05-1.88l5.53-1c-.06.86-.06 1.71-.06 2.58zm.21-6.14l-5.56 1.71c0-.77 0-1.42.06-2l5.55-2.47c0 .79-.04 1.68-.05 2.79zM203 108.59c0-2 .12-5 .21-9.13l5.46 1.7v3.23a21.31 21.31 0 001.08 7.19zm.45-18.66c.06-2.37.09-5 .16-7.79l5.63.34c-.09 2.91-.21 5.77-.28 8.46zm6.33-22.33c0 1.46-.1 3-.16 4.6l-5.81.34q0-2.88.12-6v-1.77l6-1.06c-.08 1.2-.13 2.49-.18 3.89zm33.42-24.18a24.2 24.2 0 011.06 7.28c0 9.93-1.11 48.17.36 50s4.42 2.58 4.42 4.42c0 1.29-11.73 3.12-19.9 4.22-3.49.47-6.34.81-7.33.92h-.07c-3.24.33-4-1.5-4-5.89 0-7 1.3-39.72 1.5-45.6s-2.57-12.14-8.66-12.14c-4 0-9.66 3.45-13 8.37a15.17 15.17 0 00-2.81 8.19c-.18 8.82-.93 45.05-1.11 47.62-.17 2.41.79 3.37-3.42 3.94l-1 .11c-5.34.54-15.84 2-17.87 2.2-1.24.11-2.26.15-2.87-1.06a9.47 9.47 0 01-.61-4.09c0-5.33 1.46-41.19 1.46-46.52a16.32 16.32 0 00-2-8 7.29 7.29 0 00-6.35-3.93c-6.07 0-15.27 6.8-15.44 14.52s-1.66 48-1.66 49.46.35 3.31-3.3 3.87c-1 .15-2.64.34-4.64.55-2.27.24-4.94.5-7.41.74l-7.62.74h-.27c-1.46.14-3.21.08-3.4-3.46a10 10 0 010-1.36c.06-1.51-.22-6.37-.65-12.48a16.66 16.66 0 01-3.89 1C105 122.3 89 133.81 64.06 133.81c-13.67 0-29.87-2.55-32.09-19.72a32.33 32.33 0 01-.26-4.18c0-21 11.39-71.34 12.86-78 .85-3.79-1.81-5.42-4.23-6.73-1.82-1-3.5-1.8-3.5-3.21a3.4 3.4 0 01.94-2.15A13.65 13.65 0 0141.65 17c7.52-4.07 21.54-7.14 25-7.14 3.68 0 5.89.74 5.89 5.15 0 2-2.66 19.74-5.58 39.47v.3c-.19 1.25-.37 2.5-.56 3.76-.1.7-.21 1.41-.31 2.11a67.78 67.78 0 017.87-4.21A44.05 44.05 0 0181 53.93a28.79 28.79 0 017.33-1c8.06 0 16.71 2 22.6 8.39a15 15 0 011.82-.36c0-2.64.38-5.16 1.72-6.2l.23-.18c.81-.61 2.17-1.52 3.84-2.57 6-3.78 16-9.39 19.07-9.39a3 3 0 012 .89 8.76 8.76 0 011.66 2.23 30.29 30.29 0 012.59 7.19 47.87 47.87 0 0114.11-11 42.51 42.51 0 016.23-2.61 36.86 36.86 0 0111.3-1.81 16.77 16.77 0 011.9.1 16.2 16.2 0 014.06.95c7.44 2.75 10.57 10 10.57 10a39.64 39.64 0 0116.75-14.25 35 35 0 015.06-1.8 35.78 35.78 0 019.45-1.24 28 28 0 019 1.33 17.74 17.74 0 013.78 1.73 15.94 15.94 0 016.82 8.41" fill="#433895"/><path d="M82.5 65.62a11.53 11.53 0 00-2.26-.21c-1.92 0-5.57 1.07-9.06 3.51l-.13.09a23 23 0 00-6.33 7.18.41.41 0 010 .09A19.17 19.17 0 0063 81c-2.11 14.7-3.75 26.8-3.75 29.64 0 6.64 3.21 10.3 8 11.41a15.23 15.23 0 003.38.36c6.62 0 21.31-13.6 21.31-36 .06-15.3-4.61-19.84-9.44-20.79zm-4 38.42l-9.91 4.44c.19-1.72.52-4.59 1.14-9.34l12-3.74a34.53 34.53 0 01-3.21 8.6zm4.26-15.77L71 90.32c.31-2.3.69-4.84 1.1-7.67a1.77 1.77 0 01.08-.33l10.48-.58a41.28 41.28 0 01.22 4.63c-.03.63-.09 1.28-.1 1.9z" fill="#433895"/><path d="M133.54 103.57l-.17-.28a55.86 55.86 0 00-5-5.37c2.43-2.83 4.11-6.16 4.11-9.71 0-5.33-.91-7.91-3.67-7.91s-5 2.39-5 4 2.75 3.3 2.37 5.52a16.07 16.07 0 01-1.53 4.32c-6.91-7.12-15.36-16.56-15.36-22 0-5.88 2.39-6.25 4.6-6.25s3.1 2.94 5.31 2.94c1.87 0 4.24-1.1 4.24-2.94s-3.32-5.15-8.81-5.15a13.79 13.79 0 00-1.9.13 15 15 0 00-1.82.36 11.45 11.45 0 00-8.61 8.8 15.12 15.12 0 00-.36 3.41c0 2.07 1.22 4.79 3.12 7.79l.49.76-.42.29c-2.6 1.87-6.57 5.38-7.44 9.93q-.08.89-.18 1.74v.08a12.29 12.29 0 005 9.66 15.32 15.32 0 009.21 3.39 8.4 8.4 0 001-.06 16.66 16.66 0 003.89-1 31.17 31.17 0 006.88-3.73c1.09 1.06 2 1.9 2.57 2.45l.77.7h6c1.33.14 1.92.19.71-1.87zm-17.34-2.51a6.86 6.86 0 01-1 .14 9.69 9.69 0 01-1.09.06c-4.6 0-8.28-3.13-8.28-8.45a13.31 13.31 0 012.38-7.15 143.39 143.39 0 0012.2 13.66 10.45 10.45 0 01-4.21 1.74z" fill="#f7911e"/></symbol><use xlink:href="#svg_bm-logo" xmlns:xlink="http://www.w3.org/1999/xlink"/></svg>