<svg xmlns:xlink="http://www.w3.org/1999/xlink" xmlns="http://www.w3.org/2000/svg" title="Boots" class="store-logo -boots" width="32"  height="20" ><defs><symbol xmlns="http://www.w3.org/2000/svg" viewBox="0 0 30.6 18.6" id="svg_boots-logo"><path d="M0 9.3C0 4.16 6.85 0 15.3 0s15.3 4.16 15.3 9.3-6.85 9.3-15.3 9.3S0 14.43 0 9.3" fill="#004288"></path><path d="M25.88 7.76c0-.81-.59-1.39-.6-2.17a1.16 1.16 0 0 0 .24-.2.37.37 0 0 0 .09-.4.19.19 0 0 0-.19 0c-.2.06-.27.28-.35.43l-1.18 1.41a1.21 1.21 0 0 0-1.14.35 1.34 1.34 0 0 0-.23 1.41l-.38.41a2.64 2.64 0 0 1-.83.61.22.22 0 0 1-.24-.09c-.07-.18 0-.38.1-.54l1.71-4.16 2.56-.32.31-.56h-2.54l.24-.55h-.7l-.23.49h-9.33l.24.21a1.87 1.87 0 0 1 .44 1.69l3.85-.42L22 4.9c-.18.36-.35.74-.55 1.09l-.16-.07a2.66 2.66 0 0 0-2.48.35 2.87 2.87 0 0 0-2.56.5.77.77 0 0 0-.51-.54 1.91 1.91 0 0 0-1.5.55 1.64 1.64 0 0 0-.24-.16 1.16 1.16 0 0 0-.78 0 2.92 2.92 0 0 0 .38-.89A1.82 1.82 0 0 0 12.87 4a2.88 2.88 0 0 1 .59-.45.08.08 0 0 0 0-.1h-.08a3.66 3.66 0 0 0-.89.37A4.93 4.93 0 0 0 10 3.55a5.76 5.76 0 0 0-3.47 2 1.68 1.68 0 0 0-.36 1.8 1.05 1.05 0 0 0 1 .46 1 1 0 0 0 .62-.57c-.23 0-.52-.17-.57-.43a2 2 0 0 1 .54-1.48 4.3 4.3 0 0 1 3-1.43 1.6 1.6 0 0 1 1.09.28l-.65.42a9 9 0 0 0-2.06 2.54 1.51 1.51 0 0 0-.92.12.59.59 0 0 0-.28.45.83.83 0 0 0 .53.68l-.08.18-.74 1.63c-.12.23-.22.48-.33.66a1.42 1.42 0 0 0-.71-.12 1.43 1.43 0 0 0-1.14 1 1.73 1.73 0 0 0 .33 1.72 1.85 1.85 0 0 1-.9.64 1 1 0 0 1-.76 0 .69.69 0 0 0 .44-.22.52.52 0 0 0 .15-.46.68.68 0 0 0-.45-.45.78.78 0 0 0-.65.11.69.69 0 0 0-.3.72.93.93 0 0 0 .66.69 2.74 2.74 0 0 0 2.29-.54 3.91 3.91 0 0 0 1 .42 3.36 3.36 0 0 0 3.45-1.17 4 4 0 0 0 .57-4 7.7 7.7 0 0 0-.33-.71c.25-.1.5-.22.74-.34a8.32 8.32 0 0 0 1.29-1 1.07 1.07 0 0 1 .91 0 6.74 6.74 0 0 0-1.42 2.09 2.94 2.94 0 0 0-.14 2.41.81.81 0 0 0 .77.39C14.2 11.89 15 10.82 15.5 10a5.91 5.91 0 0 0 .88-2.69 2.79 2.79 0 0 1 1.82-.71 6.38 6.38 0 0 0-1.73 2.28 2 2 0 0 0 .06 2.12.87.87 0 0 0 .9.19 3.81 3.81 0 0 0 2.1-2.78 2 2 0 0 0-.36-1.79 3.57 3.57 0 0 1 .3-.21 1.91 1.91 0 0 1 1.88 0L20.19 9a1.11 1.11 0 0 0-.07 1 .77.77 0 0 0 .52.34c.9.08 1.51-.68 2.12-1.29a1.4 1.4 0 0 0 1.24.54 1 1 0 0 1-.31.36 3 3 0 0 1-.95.41l-5.54 1.32-3.57.86a2 2 0 0 0-1.29 1 1.28 1.28 0 0 0 .1 1.27 1 1 0 0 1 .33-.29l9.71-3a4.67 4.67 0 0 0 1.14-.45c.62-.36.79-1 1.06-1.61a3.44 3.44 0 0 0 .4-.25 1.83 1.83 0 0 0 .76-1.44" fill="#FFFFFF"></path><path d="M25.13 7.94a4.26 4.26 0 0 0-.13-2l-.73 1A1.75 1.75 0 0 1 25 8.33a2.49 2.49 0 0 0 .14-.39m-.58.56A1.19 1.19 0 0 0 24 7.29c-.34.47-.71.93-1 1.39a1 1 0 0 0 1.44.22 3.17 3.17 0 0 0 .14-.4m-.97-1.3a.64.64 0 0 0-.59.16.8.8 0 0 0-.19.85l.78-1m-7.93.1c0-.16.05-.39-.11-.48s-.29.06-.4.16a9.75 9.75 0 0 0-2.05 3c-.14.32-.39.83-.22 1.22a.3.3 0 0 0 .21.14c.27 0 .55-.27.76-.48A9.37 9.37 0 0 0 15.3 8.5a6.11 6.11 0 0 0 .38-1.19m-3.22-1.66a1.61 1.61 0 0 0-.24-1.11l-.22.25a14.61 14.61 0 0 0-1.83 2.75 1.81 1.81 0 0 1 .47.39l.53-.29a2.85 2.85 0 0 0 1.34-2m-1.94 5.02a3.29 3.29 0 0 0-.18-2.13 4.07 4.07 0 0 1-.76.1 27.39 27.39 0 0 1-1.58 3.16 12.2 12.2 0 0 1-1.2 1.61 2.68 2.68 0 0 0 2.24-.4 3.87 3.87 0 0 0 1.48-2.37m-.75-2.52l.31-.04-.22-.13m-1.04-.4a.42.42 0 0 0-.19-.06.33.33 0 0 0-.34.1.22.22 0 0 0 0 .22.36.36 0 0 0 .28.2m-1.96 4.23a1.06 1.06 0 0 1-.39-.86 1.16 1.16 0 0 0-.38.7 1.07 1.07 0 0 0 .27.92 6.23 6.23 0 0 0 .46-.72m12.19-4a1.58 1.58 0 0 0-.1-1.38c-.06 0-.55.56-.55.56a6.53 6.53 0 0 0-1.29 2.49 1 1 0 0 0 .06.7.37.37 0 0 0 .39 0 2.12 2.12 0 0 0 .79-.83 6.5 6.5 0 0 0 .7-1.57" fill="#004288"></path></symbol></defs><title>Boots</title><use xlink:href="#svg_boots-logo"></use></svg>