<svg xmlns="http://www.w3.org/2000/svg" viewBox="0 0 87 35"><symbol xmlns="http://www.w3.org/2000/svg" viewBox="0 0 87 35" id="svg_bother-logo"><path d="M0 7.637 12.514 0c.253.415.5.82.745 1.225.695 1.149 1.395 2.295 2.084 3.448.63 1.057.972 2.181.789 3.433-.297 2.048-2.491 3.509-4.489 2.982l-.3-.079.053.398c.234 1.721-.427 3.078-1.939 3.977-1.479.879-3.098.8-4.453-.211a5.426 5.426 0 0 1-1.395-1.547C2.437 11.7 1.273 9.772.106 7.846.072 7.79.047 7.729 0 7.637Zm6.818-.443L4.182 8.819c.642 1.04 1.262 2.051 1.89 3.056.074.12.178.228.286.322.462.406.984.547 1.563.283.577-.263.998-.687.931-1.355-.042-.425-.211-.859-.413-1.242-.357-.676-.78-1.316-1.176-1.971l-.445-.718Zm2.36-1.431c.468.715.886 1.435 1.387 2.089.408.533 1.076.62 1.613.325.646-.355.969-.918.71-1.538-.342-.819-.811-1.583-1.238-2.392L9.178 5.763Zm10.291 6.534c3.593-.171 7.864 2.863 8.057 7.505.147 3.557-2.761 7.764-7.237 7.933-4.301.163-8.051-3.246-8.263-7.472-.183-3.635 2.825-7.874 7.443-7.966Zm.366 3.203c-2.851-.016-4.615 2.679-4.551 4.736.076 2.43 2.178 4.372 4.674 4.301 2.491-.07 4.383-2.691 4.289-4.872-.109-2.523-2.636-4.214-4.412-4.165Zm48.598-7.389c.815-1.47 1.599-2.912 2.412-4.338.355-.626.717-1.259 1.159-1.821C72.926.781 74.127.075 75.651.067c2.599-.014 4.687 2.117 4.654 4.721-.002.12 0 .242 0 .409l6.694-.346c-.071.139-.113.232-.164.322-.475.853-.96 1.701-1.42 2.562-.121.227-.263.306-.513.319-1.781.087-3.559.198-5.339.281-.347.016-.569.116-.718.447-.168.371-.391.716-.607 1.101a5544.1 5544.1 0 0 1 4.561 2.551l-1.571 2.842-12.795-7.165Zm4.2-1.376 3.06 1.72c.48-.883.959-1.722 1.398-2.581.385-.756.177-1.589-.478-2.089-.873-.67-1.783-.622-2.377.241-.589.854-1.063 1.786-1.603 2.709ZM53.401 18.49c1.002-.249 1.995-.494 2.988-.743.22-.055.225.104.258.246.48 2.012.964 4.022 1.444 6.033.612 2.563 1.221 5.128 1.831 7.692.023.093.035.188.055.303l-3.158.757-1.381-5.73-6.018 1.436 1.374 5.751-3.178.764-3.419-14.31 3.178-.767 1.318 5.502 6.017-1.436-1.309-5.498Zm20.637.67c.627.805 1.235 1.58 1.868 2.39-2.699 2.106-5.386 4.199-8.097 6.312l-8.996-11.63 7.964-6.196 1.871 2.41-5.391 4.216c.543.707 1.072 1.398 1.631 2.124l4.285-3.345 1.82 2.324-4.297 3.35 1.814 2.342 5.528-4.297Zm-43.992 2.167.643-3.068c3.65.767 7.278 1.529 10.935 2.299l-.628 3.068-3.867-.791-2.36 11.318-3.21-.68 2.372-11.32-3.885-.826Z" fill="#0040C0"/></symbol><use xlink:href="#svg_bother-logo" xmlns:xlink="http://www.w3.org/1999/xlink"/></svg>