<svg xmlns="http://www.w3.org/2000/svg" viewBox="0 0 43.07 12"><symbol xmlns="http://www.w3.org/2000/svg" viewBox="0 0 43.07 12" id="svg_coop-logo"><path d="M33.17 2.65A8.4 8.4 0 0 0 32.83 5v7h3.09V5a3.75 3.75 0 0 1 .18-1.16 1.45 1.45 0 0 1 1.11-1 3.64 3.64 0 0 1 .79-.03 3.74 3.74 0 0 1 .75.07 1.44 1.44 0 0 1 1.1 1 3.83 3.83 0 0 1 0 2.32 1.46 1.46 0 0 1-1.1 1 3.81 3.81 0 0 1-.75.07 3.64 3.64 0 0 1-.74-.07 1.4 1.4 0 0 1-.29-.09L38 10a8.61 8.61 0 0 0 2.84-.49 3.16 3.16 0 0 0 1.93-2.07 8.75 8.75 0 0 0 0-4.76 3.16 3.16 0 0 0-1.96-2.1 8.59 8.59 0 0 0-5.72 0 3.13 3.13 0 0 0-1.92 2.07m-26 2.27h3.09a8.51 8.51 0 0 0-.33-2.36A3.16 3.16 0 0 0 8 .49a8.59 8.59 0 0 0-5.72 0A3.16 3.16 0 0 0 .33 2.56 8.66 8.66 0 0 0 0 4.94a8.76 8.76 0 0 0 .33 2.38 3.18 3.18 0 0 0 1.93 2.07 8.76 8.76 0 0 0 5.74 0 3.18 3.18 0 0 0 1.91-2.07c0-.14.07-.27.1-.4L7.1 5.56a3.53 3.53 0 0 1-.1.54 1.47 1.47 0 0 1-1.11 1 4.53 4.53 0 0 1-.74.07 4.53 4.53 0 0 1-.74-.07 1.47 1.47 0 0 1-1.11-1 3.85 3.85 0 0 1-.18-1.16 3.75 3.75 0 0 1 .18-1.16 1.44 1.44 0 0 1 1.11-1 3.64 3.64 0 0 1 .74-.07 3.64 3.64 0 0 1 .74.07 1.44 1.44 0 0 1 1.11 1 3.67 3.67 0 0 1 .18 1.14M29 5a4.07 4.07 0 0 1-.17 1.16 1.47 1.47 0 0 1-1.11 1 4 4 0 0 1-1.49 0 1.47 1.47 0 0 1-1.11-1 4 4 0 0 1 0-2.32 1.45 1.45 0 0 1 1.11-1 4 4 0 0 1 1.49 0 1.45 1.45 0 0 1 1.11 1A4.07 4.07 0 0 1 29 5m2.76 2.38a8.75 8.75 0 0 0 0-4.76 3.15 3.15 0 0 0-1.9-2.04A8.79 8.79 0 0 0 27 .09a8.67 8.67 0 0 0-2.85.49 3.14 3.14 0 0 0-1.93 2.07A8.77 8.77 0 0 0 21.87 5a8.77 8.77 0 0 0 .34 2.38 3.16 3.16 0 0 0 1.93 2.07A8.67 8.67 0 0 0 27 10a8.79 8.79 0 0 0 2.87-.49 3.15 3.15 0 0 0 1.92-2.07m-13.68-2.5a3.85 3.85 0 0 1-.18 1.16 1.49 1.49 0 0 1-1.11 1 3.95 3.95 0 0 1-1.48 0 1.47 1.47 0 0 1-1.11-1 3.85 3.85 0 0 1-.18-1.16 3.75 3.75 0 0 1 .18-1.16 1.44 1.44 0 0 1 1.11-1 3.95 3.95 0 0 1 1.48 0 1.45 1.45 0 0 1 1.11 1 3.75 3.75 0 0 1 .18 1.16m2.76 2.38a8.75 8.75 0 0 0 0-4.76A3.16 3.16 0 0 0 18.94.49a8.59 8.59 0 0 0-5.72 0 3.16 3.16 0 0 0-1.93 2.07A8.66 8.66 0 0 0 11 4.94a8.76 8.76 0 0 0 .33 2.38 3.18 3.18 0 0 0 1.93 2.07 8.67 8.67 0 0 0 2.86.48 8.76 8.76 0 0 0 2.86-.48 3.18 3.18 0 0 0 1.93-2.07" fill="#00afdc"/></symbol><use xlink:href="#svg_coop-logo" xmlns:xlink="http://www.w3.org/1999/xlink"/></svg>