<svg xmlns="http://www.w3.org/2000/svg" viewBox="0 0 58.2 12"><symbol xmlns="http://www.w3.org/2000/svg" viewBox="0 0 58.2 12" id="svg_homebargains-logo"><path d="M18.69 12H58.2V.06H18.69z" fill="#ee3424"/><path d="M22.18 6a3.52 3.52 0 0 0-3.41-3.52V0H0v12h18.77V9.52A3.54 3.54 0 0 0 22.18 6" fill="#9fddf9"/><path d="M26.41 4.83c-.71 0-1 .66-1 1.4s.31 1.38 1 1.38 1-.66 1-1.38-.3-1.4-1-1.4zm-2.17-2.44h1.19v2.19a1.59 1.59 0 0 1 1.37-.65c.86 0 1.8.7 1.8 2.29s-.94 2.29-1.8 2.29a1.5 1.5 0 0 1-1.43-.67v.55h-1.13zm7.51 3.88a2.51 2.51 0 0 1-1 .25c-.37.08-.71.2-.71.64s.35.55.73.55a.89.89 0 0 0 1-1zM29 5.38c.07-1.11 1.07-1.45 2-1.45s1.91.19 1.91 1.24v2.26a2.18 2.18 0 0 0 .15 1h-1.18A1.84 1.84 0 0 1 31.8 8a2 2 0 0 1-1.46.54c-.83 0-1.48-.41-1.48-1.3S29.6 6 30.34 5.89s1.41-.08 1.41-.57-.35-.59-.77-.59-.75.19-.79.65zm4.55-1.33h1.13v.81a1.54 1.54 0 0 1 1.39-.93 1.17 1.17 0 0 1 .26 0v1.15a2.74 2.74 0 0 0-.43 0c-.88 0-1.18.63-1.18 1.4v2h-1.18zm6 2.12c0-.71-.24-1.34-1-1.34s-1 .59-1 1.24.23 1.3 1 1.3a1.07 1.07 0 0 0 1-1.2zm1.14 1.95c0 .71-.26 1.92-2.26 1.92-.85 0-1.85-.4-1.91-1.39h1.18a.81.81 0 0 0 .89.59c.67 0 1-.45 1-1.07V7.6a1.47 1.47 0 0 1-1.3.67c-1.3 0-1.85-1-1.85-2.19a1.94 1.94 0 0 1 1.86-2.15 1.33 1.33 0 0 1 1.29.7v-.58h1.14zM44 6.27a2.51 2.51 0 0 1-1 .25c-.37.08-.71.2-.71.64s.35.55.73.55a.89.89 0 0 0 1-1zm-2.76-.89c.07-1.11 1.07-1.45 2.05-1.45s1.9.19 1.9 1.24v2.26a2.16 2.16 0 0 0 .16 1h-1.23A1.84 1.84 0 0 1 44 8a2 2 0 0 1-1.46.54c-.82 0-1.48-.41-1.48-1.3s.78-1.24 1.52-1.35S44 5.81 44 5.32s-.35-.59-.77-.59-.75.19-.79.65zm5.78-2h-1.2v-1H47zm-1.2.67H47v4.34h-1.2zm1.81 0h1.13v.6a1.55 1.55 0 0 1 1.32-.72c1.27 0 1.59.72 1.59 1.79v2.67H50.5V5.94c0-.71-.21-1.07-.77-1.07s-.92.36-.92 1.25v2.27h-1.19zM53.19 7c0 .52.45.73.92.73s.78-.13.78-.55-.49-.49-1.35-.67c-.69-.15-1.38-.4-1.38-1.16 0-1.11 1-1.4 1.89-1.4s1.83.32 1.92 1.39h-1.14c0-.46-.38-.59-.81-.59-.27 0-.66 0-.66.4s.67.49 1.35.65 1.37.41 1.37 1.22c0 1.14-1 1.51-2 1.51s-2-.38-2-1.53z" fill="#fff"/><path d="M5.39 8.21h-.68l.57-2.64c.11-.55 0-.91-.61-.91S3.47 5 3.25 6l-.47 2.2H2.1l1.18-5.54H4l-.47 2.05a1.85 1.85 0 0 1 1.32-.66c.63 0 1.36.26 1.12 1.41zm2.46-.48c1 0 1.38-1 1.5-1.54s.13-1.55-.85-1.55S7.11 5.65 7 6.19s-.13 1.54.85 1.54zm.78-3.68c1.29 0 1.64 1.09 1.42 2.14a2.51 2.51 0 0 1-2.33 2.13c-1.29 0-1.65-1.09-1.42-2.13a2.51 2.51 0 0 1 2.33-2.14m2.37.12h.64l-.12.57a1.84 1.84 0 0 1 1.37-.69.84.84 0 0 1 .93.66 1.88 1.88 0 0 1 1.38-.66c.43 0 1.2.23 1 1.36l-.6 2.8h-.68l.56-2.61c.12-.56 0-.94-.55-.94a1.35 1.35 0 0 0-1.18 1.09l-.53 2.46h-.68l.6-2.8c.07-.34 0-.75-.48-.75s-1.18.25-1.42 1.34l-.47 2.2h-.68zm8.56 1.7c.09-.63-.05-1.21-.87-1.21a1.55 1.55 0 0 0-1.38 1.21zm.42 1.07A2.28 2.28 0 0 1 19 8.05a2.1 2.1 0 0 1-1.16.28c-1.14 0-1.63-.86-1.38-2a2.52 2.52 0 0 1 2.42-2.25C20 4.05 20.4 5 20.1 6.41h-3c-.18.84.11 1.33.89 1.33a1.35 1.35 0 0 0 1.21-.8z" fill="#ee3424"/></symbol><use xlink:href="#svg_homebargains-logo" xmlns:xlink="http://www.w3.org/1999/xlink"/></svg>