<svg xmlns:xlink="http://www.w3.org/1999/xlink" xmlns="http://www.w3.org/2000/svg" style="margin-bottom: 7px" title="Iceland" class="store-logo -iceland" width="62"  height="14" ><defs><symbol xmlns="http://www.w3.org/2000/svg" viewBox="0 0 44.75 10" id="svg_iceland-logo"><path d="M24.68 2.08a9.15 9.15 0 0 0-2.93.5c0 .09.26 1.26.3 1.4a7.76 7.76 0 0 1 2.31-.44c1 0 1.46.3 1.46 1v.29c-3.19 0-4.52 1.14-4.52 2.6 0 1.63 1.48 2.55 3.6 2.55a11.66 11.66 0 0 0 3.1-.37v-5c0-1.7-1.1-2.53-3.32-2.53zm1.14 6.42a3.93 3.93 0 0 1-.74.07c-.74 0-1.52-.3-1.52-1.14s.72-1.24 2.26-1.23zM7.41 2.08a3.92 3.92 0 0 0-4 4.14A3.64 3.64 0 0 0 7.35 10a6 6 0 0 0 1.86-.35l-.34-1.31a3.9 3.9 0 0 1-1.19.2c-1.26 0-2-.93-2-2.45s.88-2.55 2.14-2.55a2.76 2.76 0 0 1 .89.18L9 2.37a4.72 4.72 0 0 0-1.59-.29zM42.56 0v2.19a5.16 5.16 0 0 0-1.1-.11 3.78 3.78 0 0 0-3.86 4c0 2.45 1.59 3.91 4.25 3.91a12.92 12.92 0 0 0 2.9-.33V0zm0 8.53a4.27 4.27 0 0 1-.59 0c-1.37 0-2.16-.93-2.16-2.53 0-1.22.52-2.5 2-2.5a3 3 0 0 1 .71.09zm-28.19.04c-1.72 0-2.25-.73-2.39-1.42l4.66-1c0-3.41-2-4.07-3.37-4.07-1.72 0-3.57 1.25-3.57 4 0 2.46 1.63 3.92 4.35 3.92a7.23 7.23 0 0 0 2.18-.35l-.29-1.31a5.56 5.56 0 0 1-1.57.23zm-1.1-5c.72 0 1.2.52 1.28 1.51l-2.68.58c-.02-1.36.53-2.12 1.4-2.12zM17.88 0h2.18v9.85h-2.18zM0 0h2.18v9.85H0zm31.72 3.64a6.28 6.28 0 0 1 1.19-.13c.81 0 1.34.23 1.34 1.29v5.05h2.17V4.68c0-1.77-1.07-2.6-3.46-2.6a18.45 18.45 0 0 0-3.43.39v7.38h2.19z" fill="#CC092F"></path></symbol></defs><title>Iceland</title><use xlink:href="#svg_iceland-logo"></use></svg>