<svg xmlns:xlink="http://www.w3.org/1999/xlink" xmlns="http://www.w3.org/2000/svg" title="Morrisons" class="store-logo -morrisons" width="99"  height="15" ><defs><symbol xmlns="http://www.w3.org/2000/svg" viewBox="0 0 79.02 12" id="svg_morrisons-logo"><path d="M0 6c0-3.31 3.26-6 7.27-6s7.26 2.69 7.26 6-3.25 6-7.26 6S0 9.32 0 6" fill="#FED925"></path><path d="M7.27 7.52s-1.17-5-1.21-5.13a.29.29 0 0 0-.27-.21H3.6c-.2 0-.27.23-.27.47s.06.47.26.47h.58l-.5 5.46h-.52c-.21 0-.26.24-.26.48s.06.46.27.46H5.4c.2 0 .27-.23.27-.47s-.06-.47-.26-.47h-.55l.44-5.12 1.56 5.91h.82l1.56-5.91.44 5.11h-.56c-.2 0-.26.23-.26.47s.07.47.27.47h2.25c.2 0 .27-.22.27-.46s-.06-.48-.26-.48h-.52l-.5-5.46h.57c.21 0 .26-.23.26-.47s-.06-.47-.27-.47H8.74a.3.3 0 0 0-.27.21c0 .13-1.2 5.13-1.2 5.13M71.61 3.1v6.52h-1.25L67 4.09v4.56h.79c.21 0 .27.24.27.49s-.07.48-.28.48h-2.62c-.21 0-.28-.24-.28-.48s.06-.49.27-.49h.65V3.1h-.65c-.21 0-.27-.24-.27-.49s.07-.48.28-.48h1.73a.53.53 0 0 1 .53.31c.15.24 3 5.15 3 5.15V3.1h-.71c-.21 0-.28-.23-.28-.48s.06-.49.27-.49h2.57c.21 0 .27.24.27.49s-.07.48-.28.48h-.65M29.25 3c-1.18 0-1.94 1.08-1.94 2.89s.76 2.88 1.94 2.88 1.93-1.08 1.93-2.88S30.37 3 29.25 3m0 6.81c-2.46 0-3.34-2.21-3.34-3.92S26.79 2 29.25 2s3.34 2.21 3.34 3.93-.88 3.87-3.34 3.87m5.9-6.65v2.29H36c.93 0 1.47-.4 1.47-1.16S37 3.15 36.14 3.15h-1m2.3 6.46l-1.32-3.16h-1v2.2h.66c.21 0 .27.24.27.48s-.07.48-.28.48h-2.49c-.2 0-.27-.23-.27-.48s.06-.48.26-.48h.63V3.1h-.63c-.2 0-.26-.24-.26-.49s.07-.48.27-.48h3C38 2.13 38.8 3 38.8 4.3a2 2 0 0 1-1.46 2l1.08 2.37h.47c.21 0 .27.24.27.48s-.07.48-.28.48zm4.47-6.46v2.29h.86c.93 0 1.47-.4 1.47-1.16s-.44-1.13-1.35-1.13h-1m2.3 6.46l-1.31-3.16h-1v2.2h.66c.21 0 .26.24.26.48s-.06.48-.27.48H40.2c-.21 0-.27-.23-.27-.48s0-.48.26-.48h.47V3.1H40c-.21 0-.26-.24-.26-.49s.06-.48.27-.48h3c1.69 0 2.54.82 2.54 2.17a2 2 0 0 1-1.46 2l1.08 2.37h.47c.21 0 .26.24.26.48s-.06.48-.27.48zM46.8 3.1c-.21 0-.27-.24-.27-.49s.07-.48.28-.48h2.65c.2 0 .27.24.27.48s-.06.49-.26.49h-.66v5.56h.66c.2 0 .26.24.26.49s-.07.48-.27.48h-2.65c-.21 0-.28-.23-.28-.48s.06-.48.27-.48h.65V3.1h-.65m5 6.28c0 .21-.23.28-.48.28s-.48-.06-.48-.27V6.88c0-.21.24-.27.48-.27s.48.07.48.28l.05.44a1.75 1.75 0 0 0 1.95 1.42c.94 0 1.47-.43 1.47-1S54.9 6.74 54 6.5l-1.12-.29c-1-.27-2-.77-2-2a2.61 2.61 0 0 1 4.47-1.45v-.4c0-.2.24-.26.48-.26s.48.07.48.27v2.1c0 .21-.24.27-.48.27s-.43 0-.48-.28A1.8 1.8 0 0 0 53.5 3c-.77 0-1.31.45-1.31 1 0 .39.31.76.94.93l1.09.27c1.56.45 2.44 1.1 2.44 2.38s-1 2.21-2.83 2.21a2.36 2.36 0 0 1-2-.93v.52M61.05 3c-1.18 0-1.94 1.07-1.94 2.88s.76 2.88 1.94 2.88S63 7.69 63 5.88 62.17 3 61.05 3m0 6.8c-2.46 0-3.34-2.21-3.34-3.92S58.59 2 61.05 2s3.34 2.21 3.34 3.93-.89 3.87-3.34 3.87m13.11-.42c0 .21-.24.28-.48.28s-.49-.06-.49-.27V6.88c0-.21.24-.27.48-.27s.48.07.48.28v.44a1.75 1.75 0 0 0 2 1.42c.93 0 1.47-.43 1.47-1s-.37-1-1.27-1.22l-1.12-.29c-1-.27-2-.77-2-2A2.61 2.61 0 0 1 77.7 2.8v-.44c0-.2.24-.26.48-.26s.48.07.48.27v2.1c0 .21-.24.26-.48.26s-.44 0-.48-.27A1.81 1.81 0 0 0 75.86 3c-.78 0-1.31.45-1.31 1 0 .39.31.76.94.93l1.09.27C78.14 5.65 79 6.3 79 7.58s-1 2.21-2.83 2.21a2.36 2.36 0 0 1-2-.93v.52M21.23 7.6S20.05 2.48 20 2.35a.3.3 0 0 0-.27-.22h-2.24c-.21 0-.28.24-.28.48s.06.49.27.49h.59l-.51 5.58H17c-.2 0-.26.24-.26.48s.07.48.27.48h2.3c.21 0 .28-.24.28-.48s-.06-.49-.27-.49h-.57l.45-5.23 1.59 6h.85l1.59-6 .45 5.23h-.57c-.21 0-.26.24-.26.49s.06.48.27.48h2.3c.2 0 .27-.23.27-.48s-.06-.48-.26-.48h-.54L24.4 3.1h.6c.21 0 .27-.24.27-.49s-.07-.48-.28-.48h-2.25a.3.3 0 0 0-.27.22c0 .13-1.24 5.25-1.24 5.25" fill="#006450"></path></symbol></defs><title>Morrisons</title><use xlink:href="#svg_morrisons-logo"></use></svg>