<svg xmlns:xlink="http://www.w3.org/1999/xlink" xmlns="http://www.w3.org/2000/svg" title="Ocado" class="store-logo -ocado" width="270"  height="59.9" ><defs><symbol xmlns="http://www.w3.org/2000/svg" viewBox="0 0 270 59.9" id="svg_ocado-logo"><path d="M51.1 1.3H6.2C2.8 1.3 0 4 0 7.5v44.9c0 3.4 2.8 6.2 6.2 6.2h51.1V7.5c.1-3.5-2.7-6.2-6.2-6.2z" fill="#AAAD00"></path><path d="M28.6 49.6c10.9 0 19.7-8.7 19.7-19.6 0-2.6-.8-6-.8-5.1 0 7.3-6.8 13.3-14 12.3-5.5-.8-11.6-5.8-10.5-13.7 1.1-7.9 8-11 12.9-10.3 7.9 1.1 9.6 7.2 7.2 10-2.4 3.3-7.3 1.3-7.3-2.4 0-2.1 1.4-3 1.6-3.2-4.1-1.2-8.2 2-8.8 6.2-.6 4.6 2.8 8.2 6.6 8.7 7 1 11.1-4.7 11.1-9.7 0-5.9-6.3-12.6-17.6-12.6C17.9 10.3 9 19 9 29.9c0 10.8 8.8 19.7 19.6 19.7z" fill="#FFFFFF"></path><path d="M251 18.8c-10.7 0-19 8.2-19 19 0 10.7 8.4 19 19 19 10.7 0 19-8.2 19-19s-8.4-19-19-19m0 6.6c6.8 0 12.2 5.6 12.2 12.4 0 6.7-5.4 12.4-12.2 12.4-6.8 0-12.2-5.7-12.2-12.4 0-6.8 5.4-12.4 12.2-12.4m-88.1 24.8c-6.8 0-12.2-5.7-12.2-12.4 0-6.8 5.4-12.4 12.2-12.4 6.8 0 12.2 5.6 12.2 12.4 0 6.7-5.4 12.4-12.2 12.4m12-30.3V24h-.3c-2.8-3.1-7.3-5.1-12-5.1-10.7 0-19 8.2-19 19 0 10.7 8.4 19 19 19 4.7 0 9.2-2.1 12-5.1h.3v4h6.8V19.9h-6.8zm32 30.3c-6.8 0-12.2-5.7-12.2-12.4 0-6.8 5.4-12.4 12.2-12.4 6.8 0 12.2 5.6 12.2 12.4 0 6.7-5.4 12.4-12.2 12.4M219 2.8V24h-.3c-2.8-3.1-7.3-5.1-12-5.1-10.7 0-19 8.2-19 19 0 10.7 8.4 19 19 19 4.7 0 9.2-2.1 12-5.1h.3v4h6.9v-53H219zm-81.6 43.5c-2.2 2.4-5.3 4-8.9 4-6.8 0-12.2-5.7-12.2-12.4 0-6.8 5.4-12.4 12.2-12.4 3.5 0 6.6 1.5 8.9 3.9l3.3-6.2c-3.3-2.7-7.5-4.3-12.2-4.3-10.7 0-19 8.2-19 19 0 10.7 8.4 19 19 19 4.7 0 8.9-1.6 12.2-4.3l-3.3-6.3zM85.2 18.8c-10.7 0-19 8.2-19 19 0 10.7 8.4 19 19 19 10.7 0 19-8.2 19-19 .1-10.8-8.3-19-19-19m0 6.6c6.8 0 12.2 5.6 12.2 12.4 0 6.7-5.4 12.4-12.2 12.4-6.8 0-12.2-5.7-12.2-12.4.1-6.8 5.5-12.4 12.2-12.4"></path></symbol></defs><title>Ocado</title><use xlink:href="#svg_ocado-logo"></use></svg>