<svg xmlns="http://www.w3.org/2000/svg" viewBox="0 0 876.03 130.71"><symbol xmlns="http://www.w3.org/2000/svg" viewBox="0 0 876.03 130.71" id="svg_poundland-logo"><path fill="#007582" d="M95.92 74.92c0 14.64 7 22.85 17.66 22.85s17.62-8.21 17.62-22.85-6.87-22.71-17.62-22.71-17.66 8.23-17.66 22.71m54.58 0c0 20.81-15.64 36.54-36.92 36.54s-37-15.73-37-36.54 15.66-36.38 37-36.38c21.14 0 36.92 15.6 36.92 36.38M170.86 41a76.5 76.5 0 0010.66-.8c-1 7.11-1.49 17.33-1.49 31C180 87.37 181.91 96 192.29 96c8.9 0 13.07-8.19 13.07-24.62 0-9.59-.28-20-1.09-31.17a60.33 60.33 0 0010.12.95 74.08 74.08 0 0010-.95c-.4 6.56-.57 11-.57 13.52V93a67.07 67.07 0 002.18 16.81 51 51 0 00-8.89-1 49.16 49.16 0 00-8.74 1 41.23 41.23 0 01-1.52-12.45c-3.77 8.73-12.26 14.1-22.21 14.1-16.64 0-22.64-10.71-22.64-31.61 0-8.08.14-14.38.14-18.46 0-6.3-.14-13.41-.55-21.19a79.16 79.16 0 009.3.8m122.94 68a74.56 74.56 0 00-10 .83c.7-7.94 1-18.47 1-31.34v-4.11c0-13.56-3.91-20.24-10.78-20.24-5 0-9.57 3.12-14.42 9.7-.14 4.92-.14 9.72-.14 14.36 0 11.06.28 21.48.95 31.61a76.3 76.3 0 00-10.52-.83 74.91 74.91 0 00-9.44.83c.68-12.88.94-26 .94-39.28 0-8.6-.12-18.73-.94-30.33a71.92 71.92 0 009.29.8 68.84 68.84 0 009.17-.8l-.25 12c6.59-9.29 13.47-13.67 22.65-13.67 16 0 21.53 10 21.53 29.68v14.1a260.55 260.55 0 001 27.49 74.67 74.67 0 00-10-.83m59.74-56.63c-9.71 0-16.83 8.2-16.83 23.12 0 14.21 6.76 22.31 16.3 22.31 10.79 0 16.56-9.6 16.56-28.44 0-2.76-.11-5.63-.4-8.79-4.16-5.45-9.69-8.2-15.63-8.2m24.53-38.16a78.35 78.35 0 0010-.81c-.77 12.73-.91 22.71-.91 30.09v21.62c0 20.8.14 35.67 2.41 44.73a66.75 66.75 0 00-9.56-1 63 63 0 00-8.08 1 50.38 50.38 0 01-1.35-11.91c-5.11 8.88-12.53 13.4-22.24 13.4-17.67 0-31-13.68-31-35.29 0-23 13.21-37.35 31.79-37.35 8 0 14.7 2.49 19.94 7.4 0-2 .13-4.22.13-6.41 0-8.37-.4-17.12-1.07-26.28a76.87 76.87 0 0010 .81m39.33.43A57.8 57.8 0 00428 13.49c-.94 18.88-.94 34.89-.94 48.16v8.05c0 11.36.14 24.79.94 40.11a54.22 54.22 0 00-10.5-1 51.65 51.65 0 00-10.12 1c.85-15.32 1-28.75 1-40.11v-8.05c0-13.27 0-29.28-1-48.16a54.26 54.26 0 0010.12 1.12m53.35 63.44c-6.58 2.1-10 5.33-10 10.55 0 5.74 3.64 9.44 9.85 9.44 9.68 0 17-8.37 17-22.85a26.19 26.19 0 00-.14-3.26c-6.24 3.8-12 4.76-16.73 6.12M499 109a57.67 57.67 0 00-8.75.83 39.3 39.3 0 01-1.5-10.68V97.9c-6.17 8.88-14.69 13.56-24.64 13.56-13.36 0-21.72-8.49-21.72-20.81s7.28-18.47 22-21.89c10.38-2.46 18.07-3.57 22.63-6.57v-.94c0-6.85-5.79-11-16.44-11-6.74 0-13.33 2.19-19.66 6.31V43a56.52 56.52 0 0122.92-4.5c22.64 0 31.39 8.9 31.39 29v9.7c0 12 .29 22.71 2.85 32.57A64.57 64.57 0 00499 109m77.57 0a74.3 74.3 0 00-10 .83c.68-7.94 1-18.47 1-31.34v-4.11c0-13.56-3.92-20.24-10.79-20.24-5 0-9.59 3.12-14.42 9.7-.14 4.92-.14 9.72-.14 14.36 0 11.06.25 21.48 1 31.61a76.54 76.54 0 00-10.53-.83 75.06 75.06 0 00-9.44.83c.68-12.88 1-26 1-39.28 0-8.6-.13-18.73-1-30.33a71.61 71.61 0 009.33.8 70 70 0 009.15-.8l-.28 12c6.62-9.29 13.48-13.67 22.67-13.67 16 0 21.53 10 21.53 29.68v14.1a271.7 271.7 0 00.93 27.49 74 74 0 00-9.94-.83m59.73-56.63c-9.72 0-16.85 8.2-16.85 23.12 0 14.21 6.74 22.31 16.32 22.31 10.78 0 16.55-9.6 16.55-28.44 0-2.76-.12-5.63-.38-8.79-4.2-5.45-9.72-8.2-15.64-8.2m24.52-38.16a78.9 78.9 0 0010-.81c-.81 12.73-.93 22.71-.93 30.09v21.62c0 20.8.12 35.67 2.4 44.73a67.19 67.19 0 00-9.55-1 62.9 62.9 0 00-8.09 1 50.92 50.92 0 01-1.36-11.91c-5.12 8.88-12.52 13.4-22.25 13.4-17.63 0-31-13.68-31-35.29 0-23 13.22-37.35 31.82-37.35 7.94 0 14.7 2.49 20 7.4 0-2 .14-4.22.14-6.41 0-8.37-.4-17.12-1.09-26.28a77 77 0 0010 .81M35.07 66.45c-6 0-11.47-2.72-15.65-8.21a52.07 52.07 0 01-.4-6.16V39.43c0-2.47.12-7.61.26-10.33 4.43-6.3 8.91-7.91 15.47-7.91 10.38 0 17.14 9.62 17.14 24.52v.2c0 14.91-7.14 20.54-16.83 20.54M71.3 44.51c0-21.63-13.21-35.85-31.14-35.85-8.16 0-12.25 1.14-21.28 4.66-2.84 1-7 .84-8.88.84a68.31 68.31 0 01-10-.84C.81 26.21.94 35.47.94 48.2v26c0 10.25-.13 22-.94 35.56a75.74 75.74 0 0110-.84 90.2 90.2 0 0110.69.91l-.18-1.83c-.69-9.17-1.09-17.94-1.09-26.28 0-2.17.11-6.94.11-9 5.28 4.91 12 7.4 19.95 7.4 18.61 0 31.82-11.79 31.82-34.77v-.87"/><path fill="#fab20b" d="M779.11 130.71c4.79 0 9.64-3 10.77-6.61s-1.82-6.61-6.61-6.61-9.66 3-10.79 6.61 1.81 6.61 6.63 6.61m36.17-37.46s-6.84 16.22-24.9 19.62c0 0 7.11-17 24.9-19.62M833.05 78s2 14.9-14.59 26.35c0 0-2.12-15.54 14.59-26.35m9.77-19.65s10.21 9.55-.4 26c0 0-10.69-9.94.4-26m-.89-18.84s15.75 1.64 13.93 18.58c0 0-16.43-1.66-13.93-18.58m-11.28-12.87s17-6.75 24.5 6.13c0 0-17.71 7.08-24.5-6.13M855.53 0s12 7.72 3.42 24.71c0 0-12.48-8-3.42-24.71m-25.19 1.26s16.25.16 16.08 16.76c0 0-17-.15-16.08-16.76m-7.54 117.96s-16.52 8.75-26.28-2.39c0 0 17.24-9.18 26.28 2.39m22.85-16.3s-14 13-28.4 7c0 0 14.57-13.55 28.4-7m17.77-21.42s-9.75 15.58-27.06 15.6c0 0 10.14-16.26 27.06-15.6M874 57.63a34.93 34.93 0 01-22.45 22.26S856 62.88 874 57.63m2-23.52s1.58 15-15.11 26.24c0 0-1.74-15.69 15.11-26.24m-6.79-20.22s7.37 12-5.9 27c0 0-7.72-12.46 5.9-27M766.77 93.25s-3.33 16.22 12.59 19.62c0 0 3.52-17-12.59-19.62M758.56 78s-11.33 14.9-1.92 26.35c0 0 11.84-15.54 1.92-26.35m2.59-19.65s-16.22 9.55-15.92 26c0 0 17-9.94 15.92-26m12.67-18.84a34.9 34.9 0 00-25.57 18.58s17.48-1.66 25.57-18.58m19.38-12.87s-12.71-6.75-28.36 6.13c0 0 13.28 7.08 28.36-6.13M785 0s-16.8 7.72-18.92 24.71c0 0 17.52-8 18.91-24.71m24.45 1.26s-16.38.16-26.56 16.74a33 33 0 0026.56-16.74M743 119.22s11 8.75 27.76-2.39c0 0-11.47-9.18-27.76 2.39m-12.63-16.3s5.82 13 24 7c0 0-6.08-13.55-24-7M726 81.5s0 15.58 17.28 15.6c0 0 .05-16.26-17.28-15.6m4.46-23.87s-5.9 16.27 8.48 22.26c0 0 6.2-17-8.48-22.26m12.72-23.52s-11 15-1.35 26.24c0 0 11.58-15.69 1.35-26.24m19.44-20.22s-14.86 12-11 27c0 0 15.54-12.46 11-27"/><path fill="#007582" d="M702.54 23.77h1.69c2 0 2.92-.59 2.92-2s-1-2.09-3.07-2.09h-1.54zm2.11-6.23c4 0 6 1.35 6 4a3.78 3.78 0 01-3.08 3.74l3.14 6.27h-3.81l-2.69-5.74h-1.69v5.74h-3.4v-14zm-7.58-.33a10.68 10.68 0 00-3.22 7.55 10.67 10.67 0 0010.52 10.61 11 11 0 007.53-3.08A10.3 10.3 0 00715 25a10.54 10.54 0 00-10.56-10.77 10.13 10.13 0 00-7.34 3m16.41-1.27a12.41 12.41 0 013.6 8.87 12.21 12.21 0 01-3.74 9 12.78 12.78 0 01-9 3.7 12.75 12.75 0 01-12.61-12.66 12.89 12.89 0 011.86-6.59 12.28 12.28 0 0110.75-6.1 12.57 12.57 0 019.12 3.82"/></symbol><use xlink:href="#svg_poundland-logo" xmlns:xlink="http://www.w3.org/1999/xlink"/></svg>