<svg xmlns:xlink="http://www.w3.org/1999/xlink" xmlns="http://www.w3.org/2000/svg" title="Sainsbury's" class="store-logo -sainsburys" width="83"  height="16" ><defs><symbol xmlns="http://www.w3.org/2000/svg" viewBox="0 0 62.77 12" id="svg_sainsburys-logo"><path d="M10.34 2.47A5.86 5.86 0 0 0 8 2.94a.41.41 0 0 0-.22.37V4a.28.28 0 0 0 .25.3c.19 0 .32-.16.41-.22a3.17 3.17 0 0 1 1.87-.64c.92 0 1.06.6 1.06 1.35 0 .34-.12.41-1.44.58-.8.1-2.64.47-2.64 2.12A2.13 2.13 0 0 0 9.63 9.6a2.64 2.64 0 0 0 1.76-.73v.4a.17.17 0 0 0 .15.18H13a.18.18 0 0 0 .18-.18V4.55c0-1.23-.65-2.08-2.79-2.08zm1 5.52a1.3 1.3 0 0 1-1.22.74A1.06 1.06 0 0 1 9 7.57C9 6.75 9.62 6 11.31 6v2zM15.29.05c-.67 0-1 .39-1 .85a.9.9 0 0 0 1 .91.88.88 0 0 0 1-.91.85.85 0 0 0-1-.85zm-.87 2.78v6.46a.18.18 0 0 0 .15.18H16a.18.18 0 0 0 .18-.18V2.83a.18.18 0 0 0-.18-.18h-1.43a.18.18 0 0 0-.15.18zM.26 9.08c2.56 1.2 6.2.5 6.2-2.56 0-2.82-4.83-2.64-4.83-4.37 0-.7.67-1.15 1.52-1.15a3.12 3.12 0 0 1 1.95.71.74.74 0 0 0 .41.19c.17 0 .22-.1.22-.24V.75a.25.25 0 0 0-.17-.28 7.28 7.28 0 0 0-2.44-.4C1.1.07 0 1.32 0 2.74c0 3.08 4.75 2.44 4.75 4.52 0 1.27-1.83 2.15-3.94.67-.2-.13-.29-.21-.43-.21s-.3.14-.3.28v.77a.3.3 0 0 0 .18.31zm17.47-6.25v6.46a.17.17 0 0 0 .15.18h1.46a.17.17 0 0 0 .18-.18V4.08a3.21 3.21 0 0 1 1.42-.47c1 0 1.07.61 1.07 1.13v4.55a.17.17 0 0 0 .15.18h1.46a.17.17 0 0 0 .18-.18V4.58a1.89 1.89 0 0 0-2.11-2.08 4.68 4.68 0 0 0-2.18.68v-.35a.18.18 0 0 0-.18-.18h-1.45a.17.17 0 0 0-.15.18zm11.66.05c-2-.83-4.63-.38-4.63 1.76 0 2.43 3.84 1.92 3.84 3.23 0 1.06-1.81 1.16-3.12.16a.43.43 0 0 0-.29-.13c-.19 0-.19.1-.19.28v.59a.39.39 0 0 0 .22.4c1.69.76 4.8.78 4.8-2 0-2.4-3.88-1.86-3.88-3.06 0-1 1.9-.9 3-.15a.64.64 0 0 0 .29.12c.15 0 .24-.06.24-.27v-.54a.38.38 0 0 0-.23-.39zm32.8 0c-2-.83-4.63-.38-4.63 1.76 0 2.43 3.84 1.92 3.84 3.23 0 1.06-1.81 1.16-3.12.16A.43.43 0 0 0 58 7.9c-.15 0-.24.07-.24.28v.59a.38.38 0 0 0 .23.4c1.69.76 4.79.78 4.79-2 0-2.4-3.88-1.86-3.88-3.06 0-1 1.9-.9 3-.15a.64.64 0 0 0 .29.12c.15 0 .24-.06.24-.27v-.54a.37.37 0 0 0-.23-.39zM47.24 4.69c0-.73.26-1.19 1.84-.78a1.89 1.89 0 0 0 .49.09.21.21 0 0 0 .2-.21v-.9c0-.15-.11-.27-.31-.32a2.36 2.36 0 0 0-2.33.78v-.52a.17.17 0 0 0-.18-.18H45.6a.18.18 0 0 0-.16.18v6.46a.18.18 0 0 0 .16.18h1.46a.18.18 0 0 0 .18-.18v-4.6zm10.17-2.01c.72 0 1.53-2.68.2-2.68h-.72c-.16 0-.19.12-.19.21s.45.64.45 1.27a3.62 3.62 0 0 1-.24 1.06.16.16 0 0 0 .18.14zm-3.85 4.69l-.09-.29L52 2.82a.21.21 0 0 0-.24-.17h-1.54c-.09 0-.13.05-.13.14a.68.68 0 0 0 .07.24l2.53 6.14c.43 1-.82 1.78-2 1.44a2.23 2.23 0 0 0-.48-.09.22.22 0 0 0-.19.22v.86c0 .19.12.4.79.4 1.61 0 2.48-.82 3.26-2.76L56.54 3a.5.5 0 0 0 .07-.19.14.14 0 0 0-.14-.14h-1.08a.21.21 0 0 0-.22.17l-1.49 4.24-.12.29zm-9.43 1.92V2.83a.17.17 0 0 0-.13-.18h-1.48a.17.17 0 0 0-.18.18V8a3.21 3.21 0 0 1-1.42.47c-1 0-1.07-.61-1.07-1.12V2.83a.17.17 0 0 0-.15-.18h-1.46a.17.17 0 0 0-.18.18v4.71a1.89 1.89 0 0 0 2.11 2.08 4.72 4.72 0 0 0 2.18-.68v.35a.18.18 0 0 0 .18.18H44a.17.17 0 0 0 .15-.18zM30.79.26A.18.18 0 0 1 31 .07h1.46a.18.18 0 0 1 .18.19v3a3 3 0 0 1 2-.78c1.57 0 2.56 1.37 2.56 3.2a3.66 3.66 0 0 1-3.64 3.9 3.92 3.92 0 0 1-2.43-.79.84.84 0 0 1-.28-.7V.26zm2 8.36a1.57 1.57 0 0 0 .83.17c1 0 1.66-1 1.66-2.71 0-.64-.14-2.44-1.53-2.44a1.93 1.93 0 0 0-1.17.47v4.11a.43.43 0 0 0 .21.4z" fill="#ED7203" fill-rule="evenodd"></path></symbol></defs><title>Sainsbury's</title><use xlink:href="#svg_sainsburys-logo"></use></svg>