<svg xmlns:xlink="http://www.w3.org/1999/xlink" xmlns="http://www.w3.org/2000/svg" title="Savers" class="store-logo -savers" width="1000"  height="247.377" ><defs><symbol xmlns="http://www.w3.org/2000/svg" viewBox="0 0 1000 247.377" id="svg_savers-logo"><path d="M546.392 43.516c-.71.98-1.71 1.73-2.403 2.105-.413.443-1.711.712-2.067.308-.683-.308 0-1.538.52-2.413.278-.52.72-.817.816-.942.193-.192 3.577-1.98 4.077-1.711.375.269 0 1-.25 1.519-.106.442-.443.836-.693 1.134m-32.427 34.802v.836s-3.797 1-4.21.731c0 0 .076-.27.23-.73.336-.126.577-.414.875-.837.288-.086.519-.375 1-.692.817-.394 2.105-1 2.105-1v1.692zm-13.219 9.412c-.413.884-1 1.615-1.22 1.961-.174.173-.462.279-.693.173-.48 0-.375-.442 0-1.028.106-.222.23-.52.519-1.106.692-1.106 1.567-2.336 1.923-2.23.355.307 0 1.21-.529 2.23m-44.897-9.412c-2.009-2.211-2.528-3.692-5.874-4.317-1.442-.317-2.941-.317-4.24-.692-1.105-.442-1.999-1.028-3.047-1.548-2.125-1-4.807-1.297-6.931-2.105-2.356-1.106-3.548-2.125-7.057-.73-.961.432-1.654 1.143-2.567 1.538-2.49 1.009-4.826 1.009-6.249 2.845-.913 1.317-1.096 3.24-2.105 4.057-.395.404-1.23.683-2.337.952-3.845.836-10.604.423-11.815 0-1.01-.375-3.115-1.394-3.942-2.105-.99-.981-1.317-.981-3.057-.106-.702.288-2.98 1.403-4.509 2.211-.548.423-1.019.606-1.23.836-.904.895-1.298 1.587-.904 2.298.423.73 1.24 1.23 1.586 1.942.24.788-.47 2.23-.576 3.51v.826c0 .73.105 1.432 0 2.134-.106 1-.712 1.673-1.01 2.52-.683 2.393.721 3.2 1.24 6.604.183.961-.125 2.99-.942 4.095-.461.375-.461.712-.461 2.336v17.565c0 1.5 0 1.788.461 2.519.23.567.423 1.086.606 1.692.519 2.384-2.298 45.06-3.106 46.579-.615 1.028-1.134 1.884-1.615 2.797-.519 1.606.481 9.605-.105 16.575-.702 11.007-3.654 26.168-2.913 26.438.22.25.663.25.807.528.289.702-1.105 3.836-.711 4.798.125.836 2.115 1.336 2.403 2.23.414 1.23-.394 4.182 0 4.653.183.135.52.135.885.231.826.442 1.374 2.586 2.586 3.846 1.163 1.086 3.269 1.672 4.25 2.48.46.586.672 1.029.97 1.73.52.818 13.104 7.278 14.507 7.278 2.23.288 13.585-2.826 17.392-5.163 1.125-.894 1.5-1.692 1.644-3.509 0-1.586-.23-3.124 0-4.547.442-2.634 5.518-10.19 7.297-12.22a24.216 24.216 0 002.797-2.941c1.865-2.384 4.817-9.816 7.028-12.613.856-1.125 1.654-2.106 2.711-2.923 2.47-2.711 7.71-10.412 9.633-14.219 2.106-4.172 3.673-7.306 7.893-10.806 1.288-.923 2.567-1.653 3.5-2.759 1.547-1.586 2.365-3.826 3.759-6.037 2.422-3.51 5.768-6.913 7.643-10.124.355-.586.692-1.086.942-1.817 1.403-2.422 9.748-12.95 12.344-15.305 1.163-1.02 2.288-1.73 3.519-2.97 1.153-.808 4.499-4.798 3.537-6.048-.442-.692-.836-.692-.442-1.923.183-.288.289-.48.702-.605 1.115-.27 4.057-.27 4.057-.27s-.394-3.97 0-5.056c.125-.394 2.586-1.23 4.259-1.817 1.106-.308 13.844-16.18 19.458-21.631 2.711-2.52 4.134-3.24 5.663-6.557 1.98-4.23 1.644-5.528 4.336-7.768a23.019 23.019 0 012.22-1.644c1.702-1.173 2.423-1.567 3.423-3.682.394-.846.683-1.538 1.23-2.355.404-.606 1-1.125 1.693-1.731a37.558 37.558 0 012.547-1.769c1.692-1.317 9.2-10.421 10.076-12.258.298-.374.442-.96.528-1.403.712-1.394 9.172-10.527 17.748-19.372 3.634-3.759 7.287-7.566 10.315-10.633 2.711-2.778 12.69-17.036 13.815-19.68 1.135-2.49 1.721-3.807 4.057-5.73 1.837-1.413 5.346-3.383 5.47-6.2 0-.846-1.086-1.394-2.403-1.25-2.067.567-3.067 2.817-4.566 4.22-2.029 1.817-7.057 4.634-7.057 4.634s-5.307-4.066-7.585-5.24c-1.106-.547-2.25-.547-3.49.606-.702.568-.702.962.279 1.394 0 0 .432.106.663.106.48 0 .48.193.48.904V8.29s-5.508-.433-6.594 0c-1.02.27-2.125 2.423-3.384 3.374-.587.443-1.423.721-1.98 1.26-.712.817-.857 2.192-1.424 3.067-.586 1.172-1.528 1.047-3.547 1.567-1.76.423-2.211 1.124-3.154 2.528-.711.836-1.586 1.51-2.384 2.23-2.547 1.99-5.787 3.24-8.306 5.336-.817.894-1.817 2.125-.567 2.452.98.365 2.816-.731 3.528-1.164.961-.394 3.22-1.403 4.095-1.288.356.327-1.067 2.452-2.134 3.5-1.298 1.153-14.901 5.893-18.853 8.306-1.336.711-2.643 1.673-3.441 2.923-.356.317-.481.72-.693 1.134-.182.27-.5.711-.73.98-1.52 1.568-5.634 3.385-6.028 4.365-.289.606-.289 1.394-.712 2-.519 1.125-2.422 2.048-3.547 3.22-1.211 1.52-1.375 3.365-2.49 4.856-.961 1.297-9.412 6.48-9.98 7.46-.143.317-.268.73-.538 1.029-.586.73-1.403 1.23-1.836 1.932-.461.798-.586 1.529-.798 2.403-.605.943-4.028 3.048-5.778 5.057-.461.414-.692.952-1.173 1.5-.836 1.125-1.528 2.423-2.336 2.855-.836.53-2.009.818-3.134 1.23-2.817 1.155-2.817 2.99-3.922 5.327-.212.423-.567.884-.817 1.432-1.298 1.702-4.134 3.394-5.615 5.336-1.442 1.798-2.72 4.644-3.778 5.615-1.211.653-2.615 1.134-3.528 1.942-.712.836-1.01 1.845-1.712 2.96-.692.99-5.556 3.52-8.421 5.625-2.798 2.105-3.375 3.951-4.442 6.028-.711 1.442-6.345 6.874-7.162 7.018-3.529.98-3.99-5.47-3.529-7.182.145-.942.347-1.913.731-2.942.23-1.672.327-3.528.683-5.114.528-2.173 1.528-4.47 2.115-6.663.73-2.797.932-9.71.548-14.055-.173-1.538-.327-2.817-.548-3.548-.587-1.605-1.587-2.893-2.99-4.133a12.004 12.004 0 00-1.711-1.587l-.097-.144z" fill="#C92327"></path><path d="M0 224.91c19.4 13.277 42.003 19.45 69.546 19.45 42.484 0 72.825-22.756 78.42-54.76 4.596-25.699-7.979-39.312-36.869-48.435-21.13-6.788-35.33-7.46-33.35-18.517 1.298-7.44 8.528-11.652 21.487-11.652 14.911 0 29.63 4.884 43.349 15.594l18.564-38.898c-20.362-9.758-40.301-14.632-61.375-14.632-41.878 0-68.767 22.083-73.94 51.252-4.287 24.351 8.393 38.945 39.955 47.675 20.045 5.547 33.12 5.547 30.755 18.872-1.519 8.392-9.873 13.295-24.073 13.295-19.497 0-39.234-7.787-53.241-22.429L0 224.911zm306.31-66.813c-4.441 24.948-21.362 40.215-44.387 40.215-23.073 0-34.283-15.267-29.957-40.215 4.365-24.678 21.141-40.608 44.128-40.608 23.054 0 34.562 15.93 30.216 40.608m59.548-79.862h-52.26l-4.596 26.285c-8.787-21.737-23.948-31.466-48.04-31.466-45.387 0-79.805 33.388-88.938 85.351-9.335 52.867 13.354 85.957 55.26 85.957 25.246 0 44.166-9.748 63.048-32.11l-4.5 25.64h51.906l28.12-159.657z" fill="#00A6B9" fill-rule="evenodd"></path><path d="M838.901 224.91c19.4 13.277 42.012 19.45 69.614 19.45 42.483 0 72.757-22.756 78.439-54.76 4.47-25.699-8.037-39.312-36.936-48.435-21.208-6.788-35.35-7.46-33.428-18.517 1.317-7.44 8.605-11.652 21.574-11.652 14.901 0 29.668 4.884 43.281 15.594L1000 87.692c-20.314-9.758-40.205-14.632-61.317-14.632-41.878 0-68.797 22.083-73.93 51.252-4.279 24.351 8.392 38.945 39.916 47.675 20.15 5.547 33.053 5.547 30.716 18.872-1.394 8.392-9.748 13.295-24.073 13.295-19.439 0-39.109-7.787-53.097-22.429l-19.314 43.186zm-133.828 13.276h56.144l11.624-66.2c5.7-32.101 24.784-48.3 51.386-48.3 6.508 0 12.382 1.278 18.852 3.24l14.527-51.28c-6.653-.674-11.748-.933-15.7-.933-24.611 0-46.973 14.546-62.028 41.166l6.557-37.647H733.24l-28.168 159.954z" fill="#00A6B9"></path><path d="M645.695 137.655h-64.913c6.826-20.17 19.978-30.188 38.08-30.188 16.911 0 28.188 11.671 26.833 30.188m49.876 31.783l.433-2.615c10.364-58.712-17.18-93.764-69.085-93.764-53.241 0-96.042 38.648-104.599 87.005-8.45 48.29 19.247 84.304 77.603 84.304 37.965 0 66.797-14.267 81.074-38.273l-39.484-17.218c-8.374 12.671-21.247 19.141-38.417 19.141-22.708 0-33.274-13.632-29.226-38.58h121.7z" fill="#00A6B9" fill-rule="evenodd"></path></symbol></defs><title>Savers</title><use xlink:href="#svg_savers-logo"></use></svg>