<svg xmlns:xlink="http://www.w3.org/1999/xlink" xmlns="http://www.w3.org/2000/svg" style="margin-bottom: 7px" title="Wilko" class="store-logo -wilko" width="49"  height="18" ><defs><symbol xmlns="http://www.w3.org/2000/svg" viewBox="0 0 32.72 12" id="svg_wilko-logo"><path d="M28.87 6.33a1.82 1.82 0 1 0 1.82 1.82 1.82 1.82 0 0 0-1.82-1.82m3.85 1.82a3.86 3.86 0 1 1-3.86-3.85 3.85 3.85 0 0 1 3.86 3.85M12.49 4.43h2.2v7.39h-2.2z" fill="#B30938"></path><path fill="#B30938" d="M18.92.03h2.2v7.1h.03l2.04-2.71h2.61L23.03 7.7l2.69 4.12h-2.49l-2.08-3.54h-.03v3.54h-2.2V.03m-3.22 0h2.21v11.79h-2.2L15.7.03M2.37 4.42l1.41 3.89 1.35-3.87h1.83l1.33 3.84 1.43-3.86h2.31l-2.91 7.39H7.45l-1.5-4.06-1.43 4.06H2.85L0 4.42h2.37"></path><path d="M13.57.78a.92.92 0 1 0 .91.91.92.92 0 0 0-.91-.91m1.69.91A1.69 1.69 0 1 1 13.57 0a1.69 1.69 0 0 1 1.69 1.69" fill="#FFE14F"></path></symbol></defs><title>Wilko</title><use xlink:href="#svg_wilko-logo"></use></svg>